<?xml version="1.0" ?><svg width="64px" height="64px" viewBox="0 0 64 64" style="enable-background:new 0 0 64 64;" version="1.1" xml:space="preserve" xmlns="http://www.w3.org/2000/svg" xmlns:xlink="http://www.w3.org/1999/xlink"><style type="text/css">
	.st0{fill:none;stroke:#EDEDED;stroke-width:0.25;stroke-miterlimit:10;}
	.st1{fill:none;stroke:#BDBDBD;stroke-width:0.25;stroke-miterlimit:10;}
	.st2{fill:none;stroke:#000000;stroke-width:2;stroke-miterlimit:10;}
	.st3{fill:#35C6F4;}
	.st4{fill:#EA386E;}
	.st5{fill:#7065AD;}
	.st6{fill:#FDBE57;}
	.st7{fill:#7BC89C;}
	.st8{fill:#FDD304;}
	.st9{fill:#27255F;}
	.st10{fill:#00AEEF;}
</style><g id="Layer_1"/><g id="Layer_2"><g><path d="M17,14.3v40h30v-40h-1H17z M19,52.3v-36h26v36H19z"/><rect height="2" width="10.5" x="21.5" y="21.4"/><path d="M43.5,7V5h-23v2h-7v52h37V7H43.5z M22.5,7h19v2.1h-19V7z M48.5,57h-33V9h5v2h23v-1V9h5V57z"/><rect height="2" width="10.5" x="21.5" y="31.5"/><path d="M34.6,36.5h8v-1v-7h-8V36.5z M36.6,30.5h4v4h-4V30.5z"/><rect height="2" width="10.5" x="21.5" y="41.6"/><path d="M34.6,46.6h8v-1v-7h-8V46.6z M36.6,40.6h4v4h-4V40.6z"/><path d="M43.2,17.8l-0.7,0.6h-7.9v8h8v-1v-4.3l2-1.9L43.2,17.8z M36.6,20.4h3.9l-1.4,1.3L38.4,21l-1.6,1.3l1.8,2.2h-2.1V20.4z     M40.6,24.4h-1.4l1.4-1.3V24.4z"/></g></g></svg>